<?xml version="1.0" encoding="UTF-8"?>
<svg id="Layer_1" xmlns="http://www.w3.org/2000/svg" version="1.1" viewBox="0 0 1920 1080">
  <!-- Generator: Adobe Illustrator 29.5.1, SVG Export Plug-In . SVG Version: 2.1.0 Build 141)  -->
  <defs>
    <style>
      .st0 {
        fill: #4569fa;
      }
    </style>
  </defs>
  <path d="M518.98,417.21h-17.29v-86.47h17.29v86.47ZM570.86,313.44v17.29h-51.88v-17.29h51.88ZM570.86,417.21v17.3h-51.88v-17.3h51.88ZM588.16,330.73v17.3h-17.29v-17.3h17.29ZM570.86,399.91h17.29v17.3h-17.29v-17.3Z"/>
  <path d="M726.52,313.44v17.29h-34.59v103.77h-17.29v-103.77h-34.59v-17.29h86.47Z"/>
  <path d="M847.58,313.44v17.29h-51.88v34.59h51.88v34.59h-17.29v-17.29h-34.59v51.88h-17.29v-121.06h69.18ZM864.88,330.73v34.59h-17.29v-34.59h17.29ZM864.88,399.91v34.59h-17.29v-34.59h17.29Z"/>
  <path d="M951.35,313.44v103.77h51.88v17.3h-69.18v-121.06h17.29Z"/>
  <path d="M588.16,496.76v103.77h-17.29v-34.59h-51.88v34.59h-17.29v-103.77h17.29v51.88h51.88v-51.88h17.29ZM570.86,479.47v17.3h-51.88v-17.3h51.88Z"/>
  <path d="M674.63,479.47v103.77h51.88v17.29h-69.18v-121.06h17.29Z"/>
  <path d="M864.88,479.47v17.3h-34.59v103.77h-17.29v-103.77h-34.59v-17.3h86.47Z"/>
  <path d="M1041.23,373.92h15.36v5.67h-15.36v15.36h-5.67v-15.36h-15.36v-5.67h15.36v-15.36h5.67v15.36Z"/>
  <path d="M907.9,547.54h15.36v5.67h-15.36v15.36h-5.67v-15.36h-15.36v-5.67h15.36v-15.36h5.67v15.36Z"/>
  <g>
    <path class="st0" d="M570.86,645.5v17.3h-51.88v34.59h51.88v34.59h-17.29v-17.3h-34.59v51.88h-17.29v-121.06h69.18ZM588.16,662.79v34.59h-17.29v-34.59h17.29ZM588.16,731.97v34.59h-17.29v-34.59h17.29Z"/>
    <path class="st0" d="M726.52,645.5v17.3h-69.18v34.59h51.88v17.29h-51.88v34.59h69.18v17.29h-86.47v-121.06h86.47Z"/>
    <path d="M864.88,645.5v17.3h-34.59v103.77h-17.29v-103.77h-34.59v-17.3h86.47Z"/>
    <path d="M934.06,645.5v51.88h51.88v-51.88h17.29v121.06h-17.29v-51.88h-51.88v51.88h-17.29v-121.06h17.29Z"/>
    <path d="M1124.3,645.5v17.3h-17.29v86.47h17.29v17.29h-51.88v-17.29h17.29v-86.47h-17.29v-17.3h51.88Z"/>
    <path d="M1210.78,645.5v17.3h17.29v17.3h-17.29v86.47h-17.29v-121.06h17.29ZM1245.37,680.09v17.29h-17.29v-17.29h17.29ZM1262.66,697.38v-51.88h17.29v121.06h-17.29v-51.88h-17.29v-17.29h17.29Z"/>
    <path d="M1349.14,645.5v51.88h17.29v-17.29h17.29v34.59h-34.59v51.88h-17.29v-121.06h17.29ZM1383.73,662.79h17.29v17.3h-17.29v-17.3ZM1401.02,714.68v34.59h-17.29v-34.59h17.29ZM1401.02,645.5h17.29v17.3h-17.29v-17.3ZM1418.32,749.27v17.29h-17.29v-17.29h17.29Z"/>
  </g>
</svg>