<?xml version="1.0" encoding="UTF-8"?>
<svg id="Layer_1" xmlns="http://www.w3.org/2000/svg" version="1.1" viewBox="0 0 1920 1080">
  <!-- Generator: Adobe Illustrator 29.5.1, SVG Export Plug-In . SVG Version: 2.1.0 Build 141)  -->
  <defs>
    <style>
      .st0 {
        fill: #4569fa;
      }
    </style>
  </defs>
  <g>
    <path d="M476.08,496.41h-18.28v-91.41h18.28v91.41ZM530.93,386.72v18.28h-54.84v-18.28h54.84ZM530.93,496.41v18.28h-54.84v-18.28h54.84ZM549.21,405.01v18.28h-18.28v-18.28h18.28ZM530.93,478.13h18.28v18.28h-18.28v-18.28Z"/>
    <path d="M695.46,386.72v18.28h-36.56v109.69h-18.28v-109.69h-36.56v-18.28h91.41Z"/>
    <path d="M823.44,386.72v18.28h-54.84v36.56h54.84v36.56h-18.28v-18.28h-36.56v54.84h-18.28v-127.97h73.13ZM841.72,405.01v36.56h-18.28v-36.56h18.28ZM841.72,478.13v36.56h-18.28v-36.56h18.28Z"/>
    <path d="M933.13,386.72v109.69h54.84v18.28h-73.13v-127.97h18.28Z"/>
  </g>
  <g>
    <path d="M1169.26,405.01v109.69h-18.28v-36.56h-54.84v36.56h-18.28v-109.69h18.28v54.84h54.84v-54.84h18.28ZM1150.98,386.72v18.28h-54.84v-18.28h54.84Z"/>
    <path d="M1260.67,386.72v109.69h54.84v18.28h-73.13v-127.97h18.28Z"/>
    <path d="M1461.77,386.72v18.28h-36.56v109.69h-18.28v-109.69h-36.56v-18.28h91.41Z"/>
  </g>
  <path d="M1028.13,450.66h16.24v6h-16.24v16.24h-6v-16.24h-16.23v-6h16.23v-16.23h6v16.23Z"/>
  <path d="M1507.25,458.68h16.23v6h-16.23v16.23h-6v-16.23h-16.24v-6h16.24v-16.23h6v16.23Z"/>
  <g>
    <path class="st0" d="M540.07,564.74v18.28h-54.84v36.56h54.84v36.56h-18.28v-18.28h-36.56v54.84h-18.28v-127.97h73.13ZM558.35,583.02v36.56h-18.28v-36.56h18.28ZM558.35,656.14v36.56h-18.28v-36.56h18.28Z"/>
    <path class="st0" d="M704.6,564.74v18.28h-73.13v36.56h54.84v18.28h-54.84v36.56h73.13v18.28h-91.41v-127.97h91.41Z"/>
    <path d="M850.86,564.74v18.28h-36.56v109.69h-18.28v-109.69h-36.56v-18.28h91.41Z"/>
    <path d="M923.99,564.74v54.84h54.84v-54.84h18.28v127.97h-18.28v-54.84h-54.84v54.84h-18.28v-127.97h18.28Z"/>
    <path d="M1125.09,564.74v18.28h-18.28v91.41h18.28v18.28h-54.84v-18.28h18.28v-91.41h-18.28v-18.28h54.84Z"/>
    <path d="M1216.5,564.74v18.28h18.28v18.28h-18.28v91.41h-18.28v-127.97h18.28ZM1253.06,601.3v18.28h-18.28v-18.28h18.28ZM1271.34,619.58v-54.84h18.28v127.97h-18.28v-54.84h-18.28v-18.28h18.28Z"/>
    <path d="M1362.75,564.74v54.84h18.28v-18.28h18.28v36.56h-36.56v54.84h-18.28v-127.97h18.28ZM1399.31,583.02h18.28v18.28h-18.28v-18.28ZM1417.59,637.86v36.56h-18.28v-36.56h18.28ZM1417.59,564.74h18.28v18.28h-18.28v-18.28ZM1435.87,674.42v18.28h-18.28v-18.28h18.28Z"/>
  </g>
</svg>