<?xml version="1.0" encoding="UTF-8"?>
<svg id="Livello_2" data-name="Livello 2" xmlns="http://www.w3.org/2000/svg" xmlns:xlink="http://www.w3.org/1999/xlink" viewBox="0 0 144.05 15.65">
  <defs>
    <style>
      .cls-1 {
        fill: none;
      }

      .cls-2 {
        clip-path: url(#clippath);
      }
    </style>
    <clipPath id="clippath">
      <rect class="cls-1" width="144.05" height="15.65"/>
    </clipPath>
  </defs>
  <g id="Background">
    <g class="cls-2">
      <g>
        <path d="M141.24,11.06v.65c0,.28-.06.56-.19.82-.13.23-.31.42-.52.57-.23.15-.48.27-.74.35-.28.08-.57.12-.87.12-.34,0-.68-.09-.98-.27-.15-.08-.27-.19-.35-.34-.08-.14-.12-.31-.12-.48,0-.15.02-.3.07-.44.06-.14.15-.26.26-.36.24-.2.51-.34.81-.43.32-.09.66-.15.99-.17.35-.02.64-.03.87-.03h.76ZM141.24,15.4h2.82v-5.03c0-.74-.06-1.47-.21-2.19-.11-.58-.36-1.13-.72-1.6-.36-.45-.84-.79-1.39-.99-.71-.24-1.46-.36-2.21-.33-.8,0-1.6.13-2.36.4-.74.25-1.42.66-1.99,1.19l1.63,1.67c.31-.36.69-.65,1.11-.87.43-.21.9-.32,1.37-.31.5-.01.99.16,1.38.48.19.16.34.35.44.58.1.22.15.47.14.72-.42,0-.88,0-1.38.02-.5.01-1,.05-1.49.12-.49.07-.97.17-1.44.31-.44.13-.86.34-1.24.6-.36.26-.65.59-.86.98-.22.45-.33.95-.31,1.45-.01.46.09.91.29,1.33.18.37.45.7.77.96.34.26.72.46,1.13.58.43.13.88.19,1.32.19.61,0,1.22-.11,1.79-.35.56-.23,1.04-.63,1.36-1.14h.04v1.24ZM133.93,6.58c-.46-.48-1.04-.84-1.68-1.03-.6-.19-1.22-.29-1.84-.3-.73,0-1.46.12-2.15.37-.65.23-1.24.59-1.75,1.05-.5.46-.9,1.02-1.17,1.64-.29.67-.44,1.4-.43,2.14-.01.74.14,1.47.43,2.14.27.62.67,1.18,1.17,1.64.51.46,1.1.82,1.75,1.05.69.25,1.42.37,2.15.37.63,0,1.25-.11,1.84-.29.64-.19,1.22-.55,1.68-1.03l-2.02-2.12c-.18.21-.39.39-.63.53-.27.15-.57.23-.88.22-.77,0-1.37-.23-1.8-.69-.43-.46-.64-1.07-.64-1.81-.03-.66.2-1.31.64-1.81.43-.46,1.03-.69,1.8-.69.31,0,.61.07.88.21.25.13.47.31.63.54l2.02-2.12ZM120.7,3.64c.16.17.36.3.57.39.22.09.45.13.68.13.23,0,.47-.04.68-.13.22-.09.41-.22.57-.39.17-.16.3-.36.39-.57.09-.22.13-.45.13-.68,0-.23-.04-.46-.13-.68-.09-.22-.22-.41-.39-.57-.16-.17-.36-.3-.57-.39-.22-.09-.45-.13-.68-.13-.23,0-.46.04-.68.13-.22.09-.41.22-.57.39-.17.16-.3.36-.39.57-.09.22-.13.45-.13.68,0,.23.04.47.13.68.09.22.22.41.39.57ZM120.43,15.4h3.06V5.5h-3.06v9.9ZM81.51,15.4h3.56l2.32-3.3,2.15,3.3h3.61l-3.81-5.3,3.22-4.6h-3.4l-1.69,2.69-1.75-2.69h-3.6l3.3,4.6-3.91,5.3ZM80.34,5.5h-3.06v4.93c0,.31-.02.63-.06.94-.04.28-.12.55-.25.81-.13.24-.32.44-.56.57-.3.15-.63.23-.96.21-.32.02-.64-.07-.91-.25-.21-.16-.37-.38-.47-.63-.1-.27-.17-.56-.18-.84-.02-.31-.03-.6-.03-.89v-4.85h-3.06v5.47c0,.62.04,1.24.13,1.85.07.53.25,1.04.53,1.49.27.43.66.78,1.12.99.48.24,1.11.36,1.89.36.34,0,.69-.04,1.02-.14.29-.09.57-.21.83-.37.23-.14.44-.31.62-.51.16-.17.3-.37.42-.57h.04v1.35h2.93V5.5ZM60.38,15.4h9.07v-2.93h-5.88V.98h-3.18v14.42Z"/>
        <path d="M118.85,5.5h-2.69v-2.93h-3.06v2.93h-1.96v2.68h1.96v4.47c-.01.48.08.95.27,1.39.17.37.43.69.76.93.34.25.73.42,1.14.52.47.11.95.17,1.42.17.36,0,.72-.02,1.08-.06.36-.04.72-.12,1.06-.24v-2.55c-.17.14-.38.22-.6.23-.21.03-.43.05-.64.05-.27.01-.53-.03-.79-.13-.18-.08-.34-.21-.44-.38-.1-.18-.16-.38-.18-.58-.03-.25-.04-.5-.04-.74v-3.07h2.69v-2.68ZM111.58,5.5h-2.69v-2.93h-3.05v2.93h-1.96v2.68h1.96v4.47c-.01.48.08.95.27,1.39.17.37.43.69.76.93.34.25.73.42,1.14.52.47.11.95.17,1.43.17.36,0,.72-.02,1.08-.06.36-.04.72-.12,1.06-.24v-2.55c-.17.14-.38.22-.6.23-.21.03-.43.05-.64.05-.27.01-.53-.03-.79-.13-.18-.08-.34-.21-.44-.38-.1-.18-.16-.38-.18-.58-.03-.25-.04-.5-.04-.74v-3.07h2.69v-2.68Z"/>
        <path d="M96.21,8.64c.43-.46,1.03-.69,1.81-.69s1.37.23,1.8.69c.43.46.64,1.07.64,1.81s-.21,1.35-.64,1.81c-.43.46-1.03.69-1.8.69-.77,0-1.38-.23-1.8-.69-.43-.46-.64-1.07-.64-1.81s.21-1.35.64-1.81h0ZM92.94,12.59c.27.62.67,1.18,1.17,1.64.51.46,1.1.82,1.75,1.05.69.25,1.42.37,2.15.37.73,0,1.46-.12,2.15-.37.65-.23,1.24-.59,1.75-1.05.5-.46.9-1.02,1.17-1.64.29-.68.44-1.4.43-2.14.01-.74-.14-1.46-.43-2.14-.27-.62-.67-1.18-1.17-1.64-.51-.46-1.1-.82-1.75-1.05-.69-.25-1.42-.37-2.15-.37-.73,0-1.46.12-2.15.37-.65.23-1.24.59-1.75,1.05-.5.46-.9,1.02-1.17,1.64-.29.67-.44,1.4-.43,2.14-.01.74.14,1.47.43,2.14"/>
        <path d="M52.05,15.4h3.06v-4.14c0-.45.03-.9.08-1.34.04-.37.16-.73.36-1.05.19-.3.46-.54.78-.68.44-.18.91-.26,1.39-.24.22,0,.44.02.66.05.22.04.43.09.64.15v-2.78c-.16-.04-.33-.07-.5-.08-.18-.01-.35-.02-.53-.02-.6-.02-1.19.14-1.69.46-.49.36-.89.83-1.16,1.37h-.04v-1.59h-3.05v9.9ZM43.18,8.64c.43-.46,1.03-.69,1.8-.69s1.38.23,1.8.69c.43.46.64,1.07.64,1.81s-.21,1.35-.64,1.81c-.43.46-1.03.69-1.8.69-.77,0-1.38-.23-1.8-.69-.43-.46-.64-1.07-.64-1.81s.21-1.35.64-1.81ZM39.91,12.59c.27.62.67,1.18,1.17,1.64.51.46,1.1.82,1.75,1.05.69.25,1.42.37,2.15.37.73,0,1.46-.12,2.15-.37.65-.23,1.24-.59,1.75-1.05.5-.46.9-1.02,1.17-1.64.28-.68.42-1.41.4-2.14,0-.74-.14-1.46-.43-2.14-.27-.62-.67-1.18-1.17-1.64-.51-.46-1.1-.82-1.75-1.05-.69-.25-1.42-.37-2.15-.37-.73,0-1.46.12-2.15.37-.65.23-1.24.59-1.75,1.05-.5.46-.9,1.02-1.17,1.64-.29.67-.44,1.4-.43,2.14-.01.74.14,1.47.43,2.14h.02ZM34.94,15.41h3.06V0h-3.06v15.41ZM30.31,3.65c.16.17.36.3.57.39.22.09.45.13.68.13.23,0,.46-.04.68-.13.22-.09.41-.22.57-.39.17-.16.31-.36.4-.58.09-.22.14-.45.13-.69,0-.23-.04-.46-.13-.68-.09-.22-.22-.41-.39-.57-.16-.17-.36-.3-.57-.39-.22-.09-.45-.13-.68-.13-.23,0-.47.04-.68.13-.22.09-.41.22-.57.39-.17.16-.3.36-.39.57-.09.22-.13.45-.13.68,0,.23.04.47.13.68.09.22.22.41.39.57h0ZM30.04,15.4h3.06V5.5h-3.06v9.9ZM28.18,6.55c-.46-.49-1.05-.84-1.69-1.02-.64-.19-1.31-.28-1.98-.29-.52,0-1.03.06-1.53.19-.48.12-.93.32-1.34.6-.39.27-.71.63-.94,1.04-.25.46-.37.98-.36,1.51,0,.62.13,1.12.38,1.49.24.37.57.66.96.87.39.21.81.36,1.24.46l1.24.28c.33.07.65.18.96.33.11.05.21.13.28.23.07.1.1.22.1.35,0,.13-.04.25-.12.36-.08.1-.19.17-.31.2-.31.11-.63.16-.96.15-.42,0-.84-.08-1.21-.28-.37-.2-.69-.47-.95-.8l-1.86,2.07c.49.5,1.11.87,1.79,1.05.68.19,1.39.29,2.1.29.54,0,1.08-.05,1.61-.15.52-.09,1.01-.27,1.47-.53.43-.24.8-.58,1.07-.99.29-.47.44-1.02.42-1.58,0-.62-.13-1.12-.38-1.49-.24-.37-.57-.68-.96-.9-.39-.22-.81-.38-1.24-.48l-1.24-.28c-.33-.07-.65-.17-.96-.31-.11-.04-.21-.11-.27-.21-.07-.1-.1-.21-.1-.33,0-.13.02-.26.09-.37.07-.11.16-.2.28-.26.23-.12.49-.18.75-.18.34-.01.68.06.99.2.31.15.58.36.79.63l1.88-1.86ZM19.12,6.55c-.46-.49-1.04-.84-1.69-1.02-.64-.19-1.31-.28-1.98-.29-.52,0-1.03.06-1.53.19-.48.12-.93.32-1.34.6-.39.27-.71.63-.94,1.04-.25.46-.37.98-.36,1.51,0,.62.13,1.12.38,1.49.24.37.57.66.96.87.39.21.81.36,1.24.46l1.24.28c.33.07.65.18.96.33.11.05.21.13.28.23.07.1.1.22.1.35,0,.13-.04.25-.12.36-.08.1-.19.17-.31.2-.31.11-.63.16-.96.15-.42.01-.83-.08-1.2-.27-.37-.2-.69-.47-.95-.8l-1.86,2.06c.49.5,1.11.87,1.79,1.05.68.19,1.39.29,2.1.29.54,0,1.08-.05,1.61-.15.52-.09,1.01-.27,1.47-.53.43-.24.79-.58,1.07-.99.29-.47.44-1.02.42-1.58,0-.62-.12-1.12-.38-1.49-.24-.37-.57-.69-.96-.9-.39-.22-.81-.38-1.24-.48l-1.24-.28c-.33-.07-.65-.17-.96-.31-.11-.04-.2-.11-.27-.21-.07-.1-.1-.21-.1-.33,0-.13.02-.26.09-.37.07-.11.16-.2.28-.26.23-.12.49-.18.75-.18.34-.01.68.06.99.2.31.15.58.36.79.63l1.87-1.86ZM0,15.4h10.17v-2.93H3.18v-2.93h6.25v-2.93H3.18v-2.69h6.63V.98H0v14.42Z"/>
      </g>
    </g>
  </g>
</svg>